<svg width="18" height="17" viewBox="0 0 18 17" fill="none" xmlns="http://www.w3.org/2000/svg">
<path fill-rule="evenodd" clip-rule="evenodd" d="M17.2498 3.58909C17.2748 3.62242 17.2998 3.67242 17.3081 3.71409C17.3256 3.75576 17.3331 3.79742 17.3331 3.83909C17.3331 3.87242 17.3256 3.91409 17.3164 3.95576L17.2998 4.00576C17.2414 4.15576 17.0914 4.25576 16.9164 4.25576H14.8331V6.33909C14.8331 6.57242 14.6506 6.75576 14.4164 6.75576C14.1831 6.75576 13.9998 6.57242 13.9998 6.33909V4.25576H11.9164C11.6831 4.25576 11.4998 4.07242 11.4998 3.83909C11.4998 3.61409 11.6831 3.42242 11.9164 3.42242H13.9998V1.33909C13.9998 1.11409 14.1831 0.922424 14.4164 0.922424C14.6506 0.922424 14.8331 1.11409 14.8331 1.33909V3.42242H16.9164C16.9581 3.42242 16.9998 3.43076 17.0414 3.44742C17.0581 3.44742 17.0831 3.45576 17.0998 3.47242C17.1331 3.48076 17.1581 3.49742 17.1831 3.52242C17.2081 3.53909 17.2331 3.56409 17.2498 3.58909ZM16.2 7.86376L15.65 9.78876C15.6 9.96376 15.4334 10.0888 15.25 10.0888H4.49169L4.60002 10.7138C4.70002 11.3138 5.21669 11.7554 5.83335 11.7554H15.25C15.4834 11.7554 15.6667 11.9471 15.6667 12.1721C15.6667 12.4054 15.4834 12.5888 15.25 12.5888H5.82502C4.80835 12.5888 3.94169 11.8554 3.77502 10.8479L3.59169 9.74709V9.73876L2.57502 3.63876C2.47502 3.03042 1.95002 2.58876 1.34169 2.58876H1.08335C0.85002 2.58876 0.666687 2.40542 0.666687 2.17209C0.666687 1.94709 0.85002 1.75542 1.08335 1.75542H1.34169C2.32502 1.75542 3.18335 2.45542 3.38335 3.42209H4.41669H9.41669C9.65002 3.42209 9.83335 3.61376 9.83335 3.83876C9.83335 4.07209 9.65002 4.25542 9.41669 4.25542H4.41669H3.51669L4.35002 9.25542H14.9334L15.3834 7.68042C15.3834 7.67209 15.3854 7.66584 15.3875 7.65959C15.3896 7.65334 15.3917 7.64709 15.3917 7.63876C15.3917 7.63522 15.3917 7.63318 15.3923 7.63137C15.3932 7.62892 15.3952 7.62689 15.4 7.62212L15.4 7.6221L15.4 7.62209C15.475 7.41376 15.6917 7.28876 15.9084 7.34709C16.1334 7.41376 16.2584 7.63876 16.2 7.86376ZM5.66669 15.9223C5.20835 15.9223 4.83335 15.5473 4.83335 15.089C4.83335 14.6307 5.20835 14.2557 5.66669 14.2557C6.12502 14.2557 6.50002 14.6307 6.50002 15.089C6.50002 15.5473 6.12502 15.9223 5.66669 15.9223ZM5.66669 13.4223C4.75002 13.4223 4.00002 14.1723 4.00002 15.089C4.00002 16.014 4.75002 16.7557 5.66669 16.7557C6.58335 16.7557 7.33335 16.014 7.33335 15.089C7.33335 14.1723 6.58335 13.4223 5.66669 13.4223ZM12.3334 15.089C12.3334 15.5473 12.7084 15.9223 13.1667 15.9223C13.625 15.9223 14 15.5473 14 15.089C14 14.6307 13.625 14.2557 13.1667 14.2557C12.7084 14.2557 12.3334 14.6307 12.3334 15.089ZM11.5 15.089C11.5 14.1723 12.25 13.4223 13.1667 13.4223C14.0917 13.4223 14.8334 14.1723 14.8334 15.089C14.8334 16.014 14.0917 16.7557 13.1667 16.7557C12.25 16.7557 11.5 16.014 11.5 15.089Z" fill="white"/>
</svg>
