<svg width="16" height="16" viewBox="0 0 16 16" fill="none" xmlns="http://www.w3.org/2000/svg">
<path fill-rule="evenodd" clip-rule="evenodd" d="M9.29032 14.6868V12.0533C9.29032 11.6962 9.57621 11.4068 9.92888 11.4068C11.1872 11.4068 11.8716 10.0998 11.9665 7.52024H9.92888C9.57621 7.52024 9.29032 7.23058 9.29032 6.87356L9.29032 1.31309C9.29032 0.956113 9.57621 0.666677 9.92888 0.666677H15.3616C15.7144 0.666677 16 0.956339 16 1.31309V6.87356C16 8.11014 15.8771 9.24491 15.6347 10.2467C15.3861 11.2739 15.0046 12.1721 14.501 12.9163C13.9828 13.6811 13.3345 14.2813 12.5742 14.6994C11.8087 15.12 10.9186 15.3333 9.92866 15.3333C9.57621 15.3333 9.29032 15.044 9.29032 14.6868ZM0.638602 11.4068C0.28611 11.4068 0 11.6964 0 12.0533V14.6868C0 15.044 0.286065 15.3333 0.638602 15.3333C1.62809 15.3333 2.51838 15.12 3.28359 14.6994C4.04406 14.2813 4.69262 13.6811 5.21091 12.9163C5.71434 12.1721 6.0959 11.2739 6.34451 10.2464C6.58673 9.24433 6.70968 8.10955 6.70968 6.87356V1.31309C6.70968 0.956113 6.4237 0.666677 6.07112 0.666677H0.638647C0.286155 0.666677 0.000311852 0.956339 0.000311852 1.31309V6.8736C0.000311852 7.23058 0.28611 7.52029 0.638647 7.52029H2.64717C2.55374 10.0998 1.87929 11.4068 0.638602 11.4068Z" fill="#DA3743"/>
</svg>
