<svg width="17" height="17" viewBox="0 0 17 17" fill="none" xmlns="http://www.w3.org/2000/svg">
<path fill-rule="evenodd" clip-rule="evenodd" d="M16.9404 2.64253C16.9404 1.51446 16.0259 0.599976 14.8978 0.599976H2.64253C1.51446 0.599976 0.599976 1.51446 0.599976 2.64253V10.8127C0.599976 11.9408 1.51446 12.8553 2.64253 12.8553H12.4323C12.7031 12.8553 12.9629 12.9629 13.1544 13.1544L16.0687 16.0687C16.3904 16.3904 16.9404 16.1625 16.9404 15.7076V2.64253ZM5.70636 6.72764C5.70636 7.29167 5.24912 7.74891 4.68508 7.74891C4.12105 7.74891 3.66381 7.29167 3.66381 6.72764C3.66381 6.1636 4.12105 5.70636 4.68508 5.70636C5.24912 5.70636 5.70636 6.1636 5.70636 6.72764ZM9.79147 6.72764C9.79147 7.29167 9.33422 7.74891 8.77019 7.74891C8.20615 7.74891 7.74891 7.29167 7.74891 6.72764C7.74891 6.1636 8.20615 5.70636 8.77019 5.70636C9.33422 5.70636 9.79147 6.1636 9.79147 6.72764ZM12.8553 7.74891C13.4193 7.74891 13.8766 7.29167 13.8766 6.72764C13.8766 6.1636 13.4193 5.70636 12.8553 5.70636C12.2913 5.70636 11.834 6.1636 11.834 6.72764C11.834 7.29167 12.2913 7.74891 12.8553 7.74891Z" fill="white"/>
</svg>
